#!OML:ASF X:\für Bonn\!DataBase\2005_08_12_Daniel\c3d\Daniel.ASF
:FULLY-SPECIFIED
:DEGREES
228
root -0.19181 17.0257 16.0568 -901.302 64.5995 -173.458
lowerback 14.2479 -1.36189 3.50138
upperback 3.13441 -1.24049 -2.89429
thorax -4.81128 -0.578983 -4.82972
lowerneck 5.51431 10.2771 6.82849
upperneck 13.6746 16.4068 -11.6146
head 4.72282 8.3045 -4.08882
rclavicle 5.86415e-015 1.90833e-014
rhumerus -39.2785 8.4064 -94.7395
rradius 36.7452
rwrist -6.40722
rhand -8.72015 16.0998
rfingers 7.12502
rthumb 17.2158 -13.1576
lclavicle 5.86415e-015 1.90833e-014
lhumerus -52.4456 52.4608 39.272
lradius 16.1606
lwrist -49.0796
lhand -14.7001 -6.02112
lfingers 7.12502
lthumb 11.454 23.646
rfemur 20.1336 0.523559 22.8731
rtibia 14.4766
rfoot -45.5503 -36.4213
rtoes -12.706
lfemur -26.0362 13.1279 -12.8875
ltibia 50.2437
lfoot -22.0914 20.4893
ltoes 2.04376
229
root -0.156332 17.0102 15.9697 -901.491 63.4068 -173.711
lowerback 14.2837 -1.36013 3.19383
upperback 3.10227 -1.27982 -2.87582
thorax -4.86253 -0.595248 -4.62625
lowerneck 5.28247 10.1572 6.83414
upperneck 13.8688 16.191 -11.1847
head 4.76542 8.20077 -3.95451
rclavicle -2.48481e-014 4.77083e-015
rhumerus -38.7971 7.34256 -93.9914
rradius 34.8909
rwrist -3.77707
rhand -8.19351 15.972
rfingers 7.12502
rthumb 17.7226 -13.2404
lclavicle -2.48481e-014 4.77083e-015
lhumerus -53.9944 53.1903 37.4134
lradius 16.0022
lwrist -50.6662
lhand -14.6173 -5.98185
lfingers 7.12502
lthumb 11.5339 23.6808
rfemur 20.3255 -0.370972 22.4693
rtibia 14.696
rfoot -45.5614 -36.4101
rtoes -13.4089
lfemur -26.2408 13.5485 -13.2709
ltibia 50.5112
lfoot -22.071 20.8342
ltoes 1.90253
230
root -0.119397 16.9969 15.8766 -901.665 62.2169 -173.954
lowerback 14.2953 -1.35663 2.90478
upperback 3.0827 -1.31449 -2.86142
thorax -4.88674 -0.60827 -4.43883
lowerneck 4.99713 10.0324 6.85953
upperneck 14.0721 15.9652 -10.76
head 4.82162 8.09119 -3.82179
rclavicle -2.98177e-014 -3.10104e-014
rhumerus -38.3111 6.18931 -93.1784
rradius 33.0639
rwrist -1.15387
rhand -7.55736 15.7785
rfingers 7.12502
rthumb 18.3347 -13.3774
lclavicle -2.98177e-014 -3.10104e-014
lhumerus -55.677 53.9717 35.4183
lradius 15.8305
lwrist -52.3464
lhand -14.5962 -5.94182
lfingers 7.12502
lthumb 11.5542 23.7197
rfemur 20.5211 -1.20056 22.0566
rtibia 14.9507
rfoot -45.6162 -36.3636
rtoes -13.9654
lfemur -26.3998 13.8769 -13.6855
ltibia 50.7564
lfoot -22.0699 20.9458
ltoes 1.38916
231
root -0.0828894 16.9862 15.7762 -901.843 61.0038 -174.224
lowerback 14.2862 -1.37149 2.65782
upperback 3.05504 -1.36955 -2.86896
thorax -4.91123 -0.632279 -4.29533
lowerneck 4.7153 9.91407 6.85655
upperneck 14.2513 15.7366 -10.3021
head 4.866 7.98151 -3.67609
rclavicle -3.926e-014 2.8625e-014
rhumerus -37.8863 4.91923 -92.309
rradius 31.2547
rwrist 1.50994
rhand -6.93866 15.681
rfingers 7.12502
rthumb 18.9298 -13.4178
lclavicle -3.926e-014 2.8625e-014
lhumerus -57.6395 54.8545 33.0762
lradius 15.6166
lwrist -54.1934
lhand -14.5879 -5.91506
lfingers 7.12502
lthumb 11.5622 23.746
rfemur 20.7127 -2.03928 21.5854
rtibia 15.2146
rfoot -45.5551 -36.2576
rtoes -14.4559
lfemur -26.5328 14.0718 -14.1547
ltibia 50.9692
lfoot -22.1016 20.7242
ltoes 1.07105
232
root -0.0459189 16.9772 15.6701 -901.987 59.7751 -174.501
lowerback 14.2237 -1.39175 2.43959
upperback 3.02395 -1.42965 -2.88576
thorax -4.91094 -0.6591 -4.17752
lowerneck 4.40595 9.79033 6.85883
upperneck 14.4465 15.5031 -9.85911
head 4.92209 7.86927 -3.53417
rclavicle 8.94531e-014 -3.18055e-015
rhumerus -37.5044 3.5359 -91.3771
rradius 29.5097
rwrist 4.20678
rhand -6.3067 15.5406
rfingers 7.12502
rthumb 19.5375 -13.4977
lclavicle 8.94531e-014 -3.18055e-015
lhumerus -59.7105 55.7176 30.6397
lradius 15.4203
lwrist -55.9794
lhand -14.5959 -5.92983
lfingers 7.12502
lthumb 11.5545 23.7317
rfemur 20.8803 -2.91733 21.0538
rtibia 15.4867
rfoot -45.2948 -36.0845
rtoes -14.746
lfemur -26.6695 14.1667 -14.6696
ltibia 51.1564
lfoot -22.0655 20.2992
ltoes 0.981221
233
root -0.00851489 16.9704 15.5584 -902.095 58.542 -174.74
lowerback 14.1461 -1.41966 2.27286
upperback 2.99725 -1.49255 -2.9087
thorax -4.89904 -0.687736 -4.09543
lowerneck 4.09968 9.6549 6.85136
upperneck 14.6098 15.251 -9.44102
head 4.96842 7.74822 -3.40074
rclavicle 7.03698e-014 -2.22639e-014
rhumerus -37.1976 2.09461 -90.4023
rradius 27.831
rwrist 6.91792
rhand -5.78671 15.4095
rfingers 7.12502
rthumb 20.0374 -13.5773
lclavicle 7.03698e-014 -2.22639e-014
lhumerus -62.0366 56.6158 27.9007
lradius 15.2278
lwrist -57.8793
lhand -14.5989 -5.93296
lfingers 7.12502
lthumb 11.5516 23.7287
rfemur 21.0398 -3.82834 20.491
rtibia 15.8077
rfoot -44.8213 -35.9164
rtoes -15.144
lfemur -26.758 14.1823 -15.1796
ltibia 51.3186
lfoot -22.036 19.7931
ltoes 0.87312
234
root 0.0289522 16.9645 15.4423 -902.217 57.283 -175.008
lowerback 14.0463 -1.46093 2.10256
upperback 2.97656 -1.57352 -2.93426
thorax -4.86979 -0.724827 -4.01105
lowerneck 3.76942 9.52028 6.83063
upperneck 14.7695 15.0033 -9.06113
head 5.02099 7.62754 -3.27551
rclavicle 4.06515e-014 -1.90833e-014
rhumerus -36.9732 0.489268 -89.334
rradius 26.2512
rwrist 9.69615
rhand -5.31084 15.2734
rfingers 7.12502
rthumb 20.4947 -13.6648
lclavicle 4.06515e-014 -1.90833e-014
lhumerus -64.5838 57.5178 24.9208
lradius 15.0279
lwrist -59.8867
lhand -14.5809 -5.98688
lfingers 7.12502
lthumb 11.5689 23.6738
rfemur 21.1722 -4.82563 19.8468
rtibia 16.2154
rfoot -44.1764 -35.7219
rtoes -15.5428
lfemur -26.828 14.117 -15.7288
ltibia 51.4599
lfoot -21.9867 19.2102
ltoes 0.642498
235
root 0.0653182 16.959 15.3223 -902.327 56.0034 -175.277
lowerback 13.9344 -1.50974 1.9428
upperback 2.9516 -1.66321 -2.95964
thorax -4.83905 -0.76662 -3.93126
lowerneck 3.42621 9.36857 6.83111
upperneck 14.9376 14.7423 -8.74267
head 5.08412 7.49978 -3.17228
rclavicle -3.21037e-014 5.40694e-014
rhumerus -36.7947 -1.26316 -88.181
rradius 24.6786
rwrist 12.5372
rhand -4.97979 15.0948
rfingers 7.12502
rthumb 20.8128 -13.8089
lclavicle -3.21037e-014 5.40694e-014
lhumerus -67.3423 58.3949 21.7031
lradius 14.8203
lwrist -61.9384
lhand -14.5423 -6.09851
lfingers 7.12502
lthumb 11.6061 23.5601
rfemur 21.2312 -5.93688 19.1202
rtibia 16.7774
rfoot -43.374 -35.4844
rtoes -15.8844
lfemur -26.875 14.023 -16.2928
ltibia 51.574
lfoot -21.9447 18.503
ltoes 0.498524
236
root 0.102846 16.9553 15.1987 -902.413 54.7156 -175.509
lowerback 13.7995 -1.57842 1.79284
upperback 2.94694 -1.7761 -2.97555
thorax -4.77569 -0.819 -3.84337
lowerneck 3.08105 9.22421 6.83904
upperneck 15.082 14.4983 -8.49562
head 5.14819 7.37844 -3.09147
rclavicle -6.6891e-014 3.02153e-014
rhumerus -36.6452 -3.27654 -86.8904
rradius 23.1039
rwrist 15.5858
rhand -4.75247 14.9244
rfingers 7.12502
rthumb 21.0312 -13.9552
lclavicle -6.6891e-014 3.02153e-014
lhumerus -70.3454 59.2623 18.1953
lradius 14.5814
lwrist -64.0049
lhand -14.4658 -6.20101
lfingers 7.12502
lthumb 11.6799 23.4534
rfemur 21.1909 -7.10935 18.3538
rtibia 17.5635
rfoot -42.4281 -35.2544
rtoes -16.2798
lfemur -26.8704 13.8676 -16.8303
ltibia 51.6498
lfoot -21.9819 17.7343
ltoes 0.233289
237
root 0.140516 16.9543 15.0725 -902.491 53.4124 -175.748
lowerback 13.6537 -1.65408 1.63829
upperback 2.92893 -1.89965 -2.99018
thorax -4.72046 -0.877406 -3.75013
lowerneck 2.77457 9.06339 6.88522
upperneck 15.2226 14.2484 -8.33436
head 5.21347 7.25534 -3.04559
rclavicle 6.70898e-014 2.8625e-014
rhumerus -36.5879 -5.61925 -85.4229
rradius 21.5225
rwrist 18.8318
rhand -4.63217 14.7363
rfingers 7.12502
rthumb 21.1468 -14.1304
lclavicle 6.70898e-014 2.8625e-014
lhumerus -73.762 60.0989 14.2117
lradius 14.307
lwrist -66.2135
lhand -14.4069 -6.34502
lfingers 7.12502
lthumb 11.7367 23.3062
rfemur 20.9853 -8.33175 17.519
rtibia 18.6258
rfoot -41.2842 -35.1212
rtoes -16.9514
lfemur -26.8239 13.6756 -17.3749
ltibia 51.6718
lfoot -22.0958 16.9237
ltoes -0.137556
238
root 0.178404 16.9552 14.9438 -902.584 52.0803 -175.968
lowerback 13.5197 -1.74149 1.49367
upperback 2.92681 -2.03547 -3.00573
thorax -4.65562 -0.941264 -3.66184
lowerneck 2.49809 8.89055 6.96856
upperneck 15.36 13.9929 -8.23203
head 5.2793 7.13075 -3.02589
rclavicle -2.0773e-014 1.27222e-014
rhumerus -36.6448 -8.19365 -83.8008
rradius 20.0028
rwrist 22.2406
rhand -4.5442 14.5173
rfingers 7.12502
rthumb 21.2313 -14.34
lclavicle -2.0773e-014 1.27222e-014
lhumerus -77.389 60.8399 10.0158
lradius 14.0524
lwrist -68.4679
lhand -14.292 -6.45839
lfingers 7.12502
lthumb 11.8476 23.1865
rfemur 20.6476 -9.55059 16.6585
rtibia 19.9788
rfoot -39.9553 -35.2135
rtoes -18.2544
lfemur -26.6842 13.4457 -17.8918
ltibia 51.6265
lfoot -22.2135 16.0421
ltoes -0.46907
239
root 0.217016 16.9598 14.8139 -902.67 50.7095 -176.175
lowerback 13.3702 -1.83562 1.36977
upperback 2.94075 -2.17584 -3.02355
thorax -4.56593 -1.00695 -3.58791
lowerneck 2.23044 8.70499 7.02505
upperneck 15.485 13.7199 -8.1384
head 5.3373 6.99679 -3.00733
rclavicle 1.8487e-014 -2.22639e-014
rhumerus -36.8115 -11.1512 -81.9376
rradius 18.4847
rwrist 25.9232
rhand -4.55454 14.3463
rfingers 7.12502
rthumb 21.2214 -14.5121
lclavicle 1.8487e-014 -2.22639e-014
lhumerus -81.1623 61.4878 5.66193
lradius 13.7995
lwrist -70.7011
lhand -14.0925 -6.5561
lfingers 7.12502
lthumb 12.0399 23.0776
rfemur 20.1651 -10.7115 15.8225
rtibia 21.6002
rfoot -38.5758 -35.5271
rtoes -19.788
lfemur -26.4823 13.1834 -18.3987
ltibia 51.5155
lfoot -22.2995 15.1154
ltoes -0.830669
240
root 0.255643 16.9681 14.6827 -902.791 49.3358 -176.389
lowerback 13.2634 -1.93857 1.2251
upperback 2.9527 -2.32944 -3.02776
thorax -4.50072 -1.07915 -3.48535
lowerneck 2.00843 8.5195 7.03209
upperneck 15.584 13.4542 -8.07765
head 5.37925 6.86486 -2.9943
rclavicle 1.86858e-014 4.45278e-014
rhumerus -37.1811 -14.1219 -79.95
rradius 17.0957
rwrist 29.5467
rhand -4.66994 14.1358
rfingers 7.12502
rthumb 21.1105 -14.735
lclavicle 1.86858e-014 4.45278e-014
lhumerus -84.9978 61.992 1.32846
lradius 13.5671
lwrist -72.8098
lhand -13.9173 -6.48781
lfingers 7.12502
lthumb 12.2088 23.1359
rfemur 19.5858 -11.7823 15.0007
rtibia 23.4468
rfoot -37.1401 -35.975
rtoes -21.1135
lfemur -26.1766 12.9495 -18.8923
ltibia 51.335
lfoot -22.3854 14.1309
ltoes -1.06234
241
root 0.293317 16.9783 14.5511 -902.909 47.9389 -176.566
lowerback 13.1989 -2.04548 1.13432
upperback 2.97243 -2.48007 -3.04842
thorax -4.45248 -1.15019 -3.43108
lowerneck 1.80473 8.31806 7.06076
upperneck 15.6757 13.1662 -8.01837
head 5.41578 6.72408 -2.98804
rclavicle -2.88238e-015 1.27222e-014
rhumerus -37.7897 -17.4183 -77.6634
rradius 15.7962
rwrist 33.4346
rhand -4.73077 14.0126
rfingers 7.12502
rthumb 21.0521 -14.8647
lclavicle -2.88238e-015 1.27222e-014
lhumerus -89.1302 62.4113 -3.33658
lradius 13.347
lwrist -75.0325
lhand -13.721 -6.39042
lfingers 7.12502
lthumb 12.3982 23.2219
rfemur 18.942 -12.731 14.2648
rtibia 25.4339
rfoot -35.7338 -36.429
rtoes -21.0996
lfemur -25.8109 12.7057 -19.3496
ltibia 51.1135
lfoot -22.4863 13.1303
ltoes -1.36846
242
root 0.329999 16.9883 14.4206 -903.033 46.5511 -176.731
lowerback 13.2134 -2.15228 1.01552
upperback 2.97752 -2.63381 -3.04546
thorax -4.46036 -1.22305 -3.33371
lowerneck 1.58195 8.1284 6.97923
upperneck 15.7939 12.8945 -7.92041
head 5.45586 6.58745 -2.95072
rclavicle 6.5102e-014 2.06736e-014
rhumerus -38.6279 -20.4415 -75.3325
rradius 14.6933
rwrist 37.0223
rhand -4.84173 13.921
rfingers 7.12502
rthumb 20.9455 -14.9681
lclavicle 6.5102e-014 2.06736e-014
lhumerus -92.6785 62.6682 -7.27312
lradius 13.1456
lwrist -76.8372
lhand -13.4819 -6.1497
lfingers 7.12502
lthumb 12.6287 23.4485
rfemur 18.2376 -13.5383 13.5971
rtibia 27.5058
rfoot -34.3577 -36.8165
rtoes -19.4951
lfemur -25.4062 12.5078 -19.7884
ltibia 50.8631
lfoot -22.5322 12.1165
ltoes -1.65288
